<?xml version="1.0" encoding="UTF-8" standalone="no"?>
<!DOCTYPE svg PUBLIC "-//W3C//DTD SVG 1.1//EN" "http://www.w3.org/Graphics/SVG/1.1/DTD/svg11.dtd">
<svg xmlns="http://www.w3.org/2000/svg" version="1.1" viewBox="0.00 0.00 878.00 463.00">
<ellipse fill="#ffffff" cx="0.00" cy="0.00" transform="translate(364.04,59.26) rotate(-0.1)" rx="19.73" ry="17.05"/>
<path fill="#ffffff" d="
  M 145.48 200.82
  Q 145.33 219.91 145.49 239.00
  Q 145.53 244.05 150.39 245.10
  Q 155.58 246.22 160.63 246.38
  Q 161.00 246.39 161.00 246.76
  L 160.99 250.01
  Q 160.99 250.26 160.74 250.26
  L 98.48 250.25
  Q 97.46 250.25 97.48 249.23
  L 97.53 247.41
  Q 97.55 246.36 98.60 246.33
  Q 103.38 246.18 108.48 244.98
  C 112.91 243.93 113.24 241.04 113.24 236.77
  Q 113.26 172.48 113.24 108.20
  C 113.24 103.02 112.85 99.69 107.38 98.63
  Q 101.92 97.57 97.85 97.49
  Q 97.57 97.49 97.57 97.20
  L 97.57 93.77
  Q 97.57 93.60 97.74 93.57
  L 143.99 86.47
  Q 145.50 86.24 145.36 87.76
  Q 144.75 94.47 144.30 101.99
  Q 144.25 102.84 144.57 103.45
  A 0.48 0.48 0.0 0 0 145.37 103.51
  C 155.37 90.68 170.22 84.73 186.21 87.34
  C 217.59 92.45 227.21 127.87 224.54 154.75
  C 222.26 177.65 208.27 197.14 186.04 204.08
  Q 165.39 210.53 145.93 200.55
  Q 145.49 200.32 145.48 200.82
  Z
  M 189.62 169.37
  C 191.91 152.06 192.38 133.45 186.13 117.64
  C 179.06 99.77 160.65 94.71 145.85 107.66
  Q 145.49 107.98 145.48 108.47
  Q 145.31 161.12 145.52 176.25
  C 145.62 183.29 148.61 192.63 154.21 197.21
  C 160.63 202.47 170.89 202.22 177.22 197.31
  C 184.92 191.34 188.32 179.22 189.62 169.37
  Z"
/>
<path fill="#ffffff" d="
  M 281.31 113.07
  Q 281.50 113.09 281.69 113.03
  Q 281.95 112.95 282.08 112.71
  C 288.22 101.99 297.20 88.29 310.66 86.75
  Q 317.15 86.01 321.93 88.98
  C 335.87 97.62 326.29 123.14 309.99 115.44
  C 306.98 114.02 303.85 110.12 300.83 108.82
  C 294.20 105.97 286.48 112.65 282.28 117.51
  Q 281.97 117.88 281.97 118.36
  Q 281.89 155.68 281.98 193.00
  C 281.99 196.42 284.60 198.14 287.85 198.76
  Q 294.86 200.10 301.99 200.22
  A 0.27 0.27 0.0 0 1 302.26 200.49
  L 302.27 203.74
  A 0.26 0.26 0.0 0 1 302.01 204.00
  L 234.49 204.00
  A 0.26 0.25 -90.0 0 1 234.24 203.74
  L 234.26 200.50
  Q 234.26 200.30 234.46 200.29
  Q 239.39 199.96 244.50 198.99
  Q 249.96 197.95 249.95 192.25
  Q 249.89 150.00 249.89 107.75
  C 249.89 103.71 249.55 99.98 245.22 98.86
  Q 239.82 97.46 234.61 97.36
  Q 234.24 97.36 234.24 96.99
  L 234.25 93.77
  Q 234.25 93.45 234.57 93.40
  L 280.56 86.34
  Q 282.02 86.11 281.95 87.59
  L 280.86 112.57
  Q 280.84 113.04 281.31 113.07
  Z"
/>
<path fill="#ffffff" d="
  M 343.50 199.04
  C 347.51 198.32 348.76 195.94 348.77 191.75
  Q 348.88 149.63 348.81 107.50
  C 348.80 103.84 348.63 100.18 344.48 98.83
  Q 340.34 97.48 333.61 97.37
  Q 333.24 97.36 333.24 96.99
  L 333.25 93.77
  Q 333.25 93.45 333.57 93.40
  L 379.50 86.35
  Q 380.95 86.12 380.95 87.59
  Q 380.93 139.72 380.96 192.75
  Q 380.97 198.32 386.85 199.23
  Q 391.75 199.98 396.43 200.29
  Q 396.66 200.30 396.66 200.53
  L 396.66 203.79
  Q 396.66 204.00 396.46 204.00
  L 333.49 204.00
  A 0.26 0.25 -90.0 0 1 333.24 203.74
  L 333.26 200.53
  Q 333.26 200.30 333.48 200.29
  Q 338.40 199.96 343.50 199.04
  Z"
/>
<path fill="#ffffff" d="
  M 478.57 92.13
  Q 480.21 92.72 481.86 93.51
  Q 482.31 93.73 482.34 94.22
  L 484.35 123.07
  Q 484.38 123.50 483.94 123.50
  L 480.77 123.51
  Q 480.28 123.51 480.13 123.03
  C 475.20 107.05 458.54 84.35 438.75 93.80
  Q 433.40 96.35 431.95 102.88
  C 424.95 134.51 492.75 130.87 490.33 172.75
  C 489.52 186.72 480.77 197.51 467.81 202.34
  C 448.66 209.48 425.51 206.47 407.22 198.61
  Q 406.68 198.38 406.64 197.80
  L 404.17 167.50
  Q 404.14 167.13 404.51 167.14
  L 407.97 167.23
  Q 408.28 167.23 408.36 167.54
  Q 410.31 175.16 415.21 183.51
  Q 423.76 198.08 440.51 200.73
  C 451.35 202.44 462.59 198.26 464.45 186.64
  C 469.43 155.51 399.82 160.39 405.60 115.00
  C 407.32 101.51 417.82 92.00 430.99 88.64
  C 446.23 84.74 463.47 86.66 478.57 92.13
  Z"
/>
<path fill="#ffffff" d="
  M 616.46 110.34
  Q 617.12 109.94 617.69 109.21
  C 628.67 95.18 643.71 84.27 662.38 87.09
  C 679.79 89.72 687.22 103.21 687.28 119.75
  Q 687.41 154.87 687.43 190.00
  C 687.43 194.84 687.55 198.26 693.28 199.10
  Q 700.17 200.11 702.57 200.28
  Q 702.98 200.31 702.98 200.72
  L 702.97 203.76
  Q 702.97 204.00 702.74 204.00
  L 645.27 204.00
  Q 645.13 204.00 645.13 203.86
  L 645.18 200.54
  Q 645.18 200.33 645.39 200.29
  C 651.93 199.28 655.21 198.95 655.22 191.50
  Q 655.28 157.51 655.23 123.52
  C 655.22 117.35 655.54 109.91 650.27 105.57
  C 640.58 97.60 624.44 107.87 617.04 114.76
  Q 616.69 115.09 616.69 115.57
  Q 616.77 154.16 616.78 192.75
  Q 616.78 197.81 621.63 198.85
  Q 626.93 199.98 632.02 200.27
  A 0.37 0.37 0.0 0 1 632.37 200.64
  L 632.40 203.65
  Q 632.40 204.00 632.05 204.00
  L 574.59 204.00
  Q 574.41 204.00 574.41 203.81
  L 574.42 200.54
  Q 574.42 200.32 574.64 200.29
  C 579.19 199.68 584.44 199.06 584.48 193.75
  Q 584.58 177.78 584.48 117.00
  Q 584.48 113.86 583.15 110.64
  C 578.43 99.22 564.56 102.18 556.43 107.19
  Q 550.68 110.74 546.32 114.83
  A 1.18 1.18 0.0 0 0 545.95 115.69
  Q 545.93 154.10 545.97 192.50
  Q 545.97 198.21 551.73 199.15
  Q 556.68 199.97 561.43 200.29
  Q 561.65 200.30 561.65 200.53
  L 561.66 203.79
  Q 561.66 204.00 561.46 204.00
  L 498.49 204.00
  A 0.25 0.25 0.0 0 1 498.24 203.74
  L 498.26 200.53
  Q 498.26 200.30 498.48 200.29
  Q 503.41 199.96 508.50 198.99
  Q 513.96 197.95 513.95 192.25
  Q 513.89 150.00 513.89 107.75
  C 513.89 103.71 513.55 99.98 509.22 98.86
  Q 503.82 97.46 498.61 97.36
  Q 498.24 97.36 498.24 96.99
  L 498.25 93.77
  Q 498.25 93.45 498.57 93.40
  L 544.56 86.34
  Q 546.01 86.11 545.94 87.58
  L 544.95 108.80
  Q 544.77 112.47 546.97 109.52
  C 558.07 94.56 575.08 83.02 594.49 87.51
  C 606.14 90.20 613.18 98.81 615.87 110.10
  A 0.39 0.39 0.0 0 0 616.46 110.34
  Z"
/>
<path fill="#ffffff" d="
  M 770.44 142.68
  Q 770.57 130.96 770.39 119.25
  C 770.23 108.40 765.16 98.34 753.85 95.66
  C 745.23 93.62 731.43 96.62 728.55 106.01
  C 725.78 115.08 733.90 116.20 737.10 122.13
  Q 740.27 128.02 734.15 131.94
  Q 728.56 135.53 720.75 133.74
  C 710.65 131.41 710.31 122.29 713.97 114.41
  C 723.77 93.32 748.07 84.01 769.99 87.12
  C 784.68 89.21 796.69 96.20 801.07 110.70
  Q 802.51 115.50 802.57 124.92
  Q 802.75 155.22 802.51 185.50
  C 802.41 198.04 813.04 193.72 818.93 189.45
  A 0.17 0.17 0.0 0 1 819.20 189.56
  L 819.81 192.72
  Q 819.86 192.98 819.64 193.13
  C 808.59 200.90 797.26 207.90 783.04 205.81
  C 773.22 204.37 770.23 197.74 770.46 188.51
  A 0.40 0.40 0.0 0 0 769.75 188.25
  C 759.16 201.95 740.23 211.10 723.25 203.98
  C 708.07 197.62 704.11 177.45 713.10 164.56
  C 724.42 148.34 751.92 144.50 769.93 143.22
  Q 770.43 143.18 770.44 142.68
  Z
  M 751.65 189.23
  C 758.36 190.49 764.60 187.32 770.14 183.33
  Q 770.47 183.10 770.47 182.69
  L 770.47 148.25
  Q 770.47 147.73 769.95 147.79
  Q 761.41 148.68 753.56 152.11
  C 742.12 157.12 738.75 169.07 742.05 180.48
  Q 744.17 187.82 751.65 189.23
  Z"
/>
<path fill="#ffffff" d="
  M 485.97 230.18
  Q 490.80 224.76 497.98 225.54
  C 512.77 227.15 515.05 248.44 500.74 252.74
  Q 492.01 255.37 485.97 249.07
  Q 485.50 248.58 485.50 249.26
  L 485.51 252.49
  Q 485.52 253.00 485.01 253.00
  L 481.80 252.99
  Q 481.35 252.99 481.35 252.55
  L 481.36 208.81
  Q 481.36 208.49 481.69 208.48
  L 485.21 208.42
  A 0.30 0.29 -0.0 0 1 485.51 208.71
  L 485.51 230.00
  Q 485.51 230.69 485.97 230.18
  Z
  M 495.1946 250.2241
  A 10.72 10.56 91.9 0 0 506.1042 239.8601
  A 10.72 10.56 91.9 0 0 495.9054 228.7959
  A 10.72 10.56 91.9 0 0 484.9958 239.1599
  A 10.72 10.56 91.9 0 0 495.1946 250.2241
  Z"
/>
<path fill="#ffffff" d="
  M 592.49 226.00
  L 599.49 226.00
  Q 599.84 226.00 599.83 226.36
  L 599.73 229.23
  A 0.21 0.21 0.0 0 1 599.52 229.44
  L 592.50 229.45
  Q 591.98 229.45 591.97 229.97
  Q 591.91 238.12 592.29 246.22
  C 592.48 250.33 596.73 249.97 599.44 248.86
  Q 599.69 248.75 599.70 249.03
  L 599.77 252.00
  Q 599.78 252.30 599.49 252.38
  C 594.05 253.86 587.61 252.87 587.77 245.74
  Q 587.95 237.84 587.99 229.91
  A 0.49 0.49 0.0 0 0 587.49 229.42
  L 582.49 229.45
  A 0.23 0.22 -1.3 0 1 582.26 229.24
  L 582.16 226.37
  A 0.35 0.34 88.4 0 1 582.50 226.00
  L 587.48 226.00
  Q 587.96 226.00 587.96 225.52
  L 587.96 217.76
  Q 587.96 217.48 588.24 217.47
  L 591.70 217.43
  A 0.28 0.27 -1.0 0 1 591.99 217.70
  L 591.99 225.49
  Q 591.99 226.00 592.49 226.00
  Z"
/>
<path fill="#ffffff" d="
  M 780.49 226.00
  L 787.49 226.00
  Q 787.84 226.00 787.83 226.36
  L 787.73 229.23
  A 0.21 0.21 0.0 0 1 787.52 229.44
  L 780.50 229.44
  Q 779.98 229.44 779.97 229.97
  Q 779.91 238.12 780.29 246.22
  C 780.48 250.33 784.74 249.97 787.44 248.85
  A 0.19 0.19 0.0 0 1 787.70 249.02
  L 787.77 252.00
  Q 787.78 252.28 787.52 252.35
  C 783.86 253.43 778.23 253.48 776.54 249.50
  Q 776.00 248.23 775.98 244.95
  Q 775.93 237.35 775.97 229.88
  A 0.46 0.46 0.0 0 0 775.50 229.42
  L 770.49 229.45
  Q 770.27 229.45 770.27 229.24
  L 770.16 226.37
  A 0.35 0.34 88.4 0 1 770.50 226.00
  L 775.48 226.00
  Q 775.96 226.00 775.96 225.52
  L 775.96 217.76
  Q 775.96 217.48 776.24 217.47
  L 779.71 217.43
  A 0.27 0.27 0.0 0 1 779.99 217.70
  L 779.99 225.49
  Q 779.99 226.00 780.49 226.00
  Z"
/>
<path fill="#ffffff" d="
  M 466.50 248.88
  Q 461.29 255.55 452.75 252.77
  Q 448.16 251.27 447.39 246.49
  C 445.67 235.92 459.02 236.12 466.05 235.99
  Q 466.48 235.99 466.52 235.55
  C 467.30 226.72 455.94 228.15 451.31 231.73
  A 0.33 0.33 0.0 0 1 450.87 231.69
  L 448.95 229.55
  Q 448.76 229.34 448.99 229.17
  C 456.10 223.67 470.69 223.27 470.48 235.50
  Q 470.34 244.18 470.85 252.69
  Q 470.87 253.00 470.55 253.00
  L 467.51 252.98
  Q 467.29 252.98 467.27 252.76
  L 466.93 249.01
  A 0.24 0.24 0.0 0 0 466.50 248.88
  Z
  M 466.08 239.43
  C 462.18 239.41 451.03 239.11 451.47 245.48
  C 451.67 248.27 454.41 250.22 457.02 250.20
  Q 466.96 250.13 466.58 239.92
  Q 466.56 239.43 466.08 239.43
  Z"
/>
<path fill="#ffffff" d="
  M 522.66 229.91
  Q 526.63 224.52 533.47 225.61
  Q 533.81 225.67 533.77 226.01
  L 533.39 229.10
  Q 533.33 229.53 532.93 229.36
  C 527.24 227.06 522.53 232.18 522.47 237.76
  Q 522.40 245.34 522.46 252.53
  Q 522.46 253.00 521.99 253.00
  L 518.76 252.99
  Q 518.27 252.99 518.27 252.51
  L 518.21 226.26
  Q 518.21 225.99 518.48 225.99
  L 521.73 226.02
  Q 521.94 226.02 521.95 226.23
  L 522.17 229.76
  Q 522.21 230.52 522.66 229.91
  Z"
/>
<path fill="#ffffff" d="
  M 541.64 240.89
  C 542.59 250.83 554.17 253.05 560.25 245.76
  Q 560.45 245.52 560.70 245.70
  L 563.34 247.64
  Q 563.56 247.80 563.38 248.01
  C 557.07 255.26 544.71 255.84 539.37 247.20
  C 532.90 236.72 541.30 224.05 553.40 225.46
  C 560.75 226.32 565.17 232.71 564.35 240.09
  Q 564.31 240.44 563.97 240.44
  L 542.04 240.44
  Q 541.60 240.44 541.64 240.89
  Z
  M 542.00 237.05
  L 560.20 236.95
  A 0.13 0.13 0.0 0 0 560.33 236.82
  L 560.33 236.75
  A 9.11 7.88 -0.3 0 0 551.18 228.92
  L 550.94 228.92
  A 9.11 7.88 -0.3 0 0 541.87 236.85
  L 541.87 236.92
  A 0.13 0.13 0.0 0 0 542.00 237.05
  Z"
/>
<path fill="#ffffff" d="
  M 659.17 230.21
  Q 659.19 230.62 659.45 230.30
  C 664.00 224.56 673.06 222.94 676.52 230.65
  Q 676.77 231.20 677.10 230.70
  Q 682.21 223.17 690.79 226.11
  C 696.05 227.91 696.89 232.54 696.97 237.97
  Q 697.08 245.43 696.98 252.75
  Q 696.97 253.00 696.72 253.00
  L 693.27 253.00
  Q 693.00 253.00 693.00 252.72
  Q 693.02 245.12 692.83 237.26
  C 692.73 233.46 691.62 229.80 687.46 229.17
  C 679.34 227.93 677.87 235.02 677.95 241.25
  Q 678.03 247.18 678.02 252.71
  A 0.29 0.28 90.0 0 1 677.74 253.00
  L 674.31 253.00
  Q 674.00 252.99 674.00 252.69
  Q 674.01 244.88 673.99 236.75
  C 673.97 224.85 660.15 227.27 659.71 237.52
  Q 659.39 245.21 659.46 252.52
  Q 659.47 253.00 658.99 253.00
  L 655.76 253.00
  Q 655.27 252.99 655.27 252.51
  L 655.21 226.26
  Q 655.21 225.99 655.48 225.99
  L 658.73 226.02
  Q 658.94 226.02 658.95 226.23
  L 659.17 230.21
  Z"
/>
<path fill="#ffffff" d="
  M 709.63 240.89
  C 710.56 250.83 722.17 253.03 728.26 245.76
  Q 728.45 245.52 728.70 245.70
  L 731.34 247.64
  Q 731.56 247.80 731.38 248.01
  C 725.07 255.27 712.70 255.84 707.37 247.20
  C 700.90 236.72 709.30 224.05 721.40 225.46
  C 728.75 226.32 733.17 232.71 732.35 240.09
  Q 732.31 240.44 731.97 240.44
  L 710.03 240.45
  Q 709.59 240.45 709.63 240.89
  Z
  M 710.00 237.05
  L 728.20 236.95
  A 0.13 0.13 0.0 0 0 728.33 236.82
  L 728.33 236.75
  A 9.11 7.88 -0.3 0 0 719.18 228.92
  L 718.94 228.92
  A 9.11 7.88 -0.3 0 0 709.87 236.85
  L 709.87 236.92
  A 0.13 0.13 0.0 0 0 710.00 237.05
  Z"
/>
<path fill="#ffffff" d="
  M 745.61 230.15
  C 751.68 222.93 764.52 223.95 765.16 234.75
  Q 765.43 239.32 765.24 252.74
  Q 765.23 253.00 764.98 253.00
  L 761.47 252.99
  Q 761.16 252.99 761.16 252.68
  C 761.24 247.43 762.55 234.41 758.73 230.59
  C 755.06 226.92 748.18 229.32 746.32 233.88
  C 744.53 238.26 745.41 247.48 745.46 252.52
  Q 745.47 253.00 745.00 253.00
  L 741.76 252.99
  Q 741.27 252.99 741.27 252.51
  L 741.21 226.27
  Q 741.21 226.00 741.48 226.00
  L 744.73 226.01
  Q 744.95 226.01 744.96 226.23
  L 745.16 230.00
  Q 745.20 230.64 745.61 230.15
  Z"
/>
<path fill="#ffffff" d="
  M 796.64 240.89
  C 797.62 250.86 809.26 253.08 815.30 245.70
  A 0.25 0.24 -52.6 0 1 815.64 245.65
  L 818.34 247.64
  Q 818.56 247.80 818.38 248.01
  C 812.11 255.25 799.80 255.83 794.43 247.28
  C 787.85 236.83 796.24 224.04 808.40 225.46
  C 815.75 226.32 820.17 232.71 819.35 240.09
  Q 819.31 240.44 818.96 240.44
  L 797.03 240.44
  Q 796.59 240.44 796.64 240.89
  Z
  M 797.00 237.05
  L 815.20 236.95
  A 0.13 0.13 0.0 0 0 815.33 236.82
  L 815.33 236.75
  A 9.11 7.88 -0.3 0 0 806.18 228.92
  L 805.94 228.92
  A 9.11 7.88 -0.3 0 0 796.87 236.85
  L 796.87 236.92
  A 0.13 0.13 0.0 0 0 797.00 237.05
  Z"
/>
<path fill="#ffffff" d="
  M 625.86 248.88
  C 619.64 256.16 606.43 255.06 606.12 243.88
  Q 606.02 239.89 606.06 226.23
  Q 606.06 226.00 606.30 226.00
  L 609.96 226.01
  Q 610.21 226.01 610.21 226.26
  Q 609.94 238.32 610.32 243.24
  C 610.92 250.96 620.06 252.52 623.97 246.74
  C 627.10 242.10 626.02 231.79 625.91 226.32
  A 0.31 0.31 0.0 0 1 626.22 226.00
  L 629.47 226.00
  Q 629.95 226.00 629.95 226.47
  L 630.06 252.72
  Q 630.06 253.01 629.78 253.00
  L 626.50 252.98
  Q 626.26 252.98 626.26 252.75
  L 626.20 249.00
  Q 626.20 248.48 625.86 248.88
  Z"
/>
<path fill="#ffffff" d="
  M 691.50 384.97
  C 679.97 384.28 670.58 384.59 654.50 383.74
  Q 632.28 382.56 594.26 377.46
  C 565.63 373.62 537.27 368.90 508.97 363.09
  C 404.94 341.71 302.35 313.32 201.55 279.21
  A 1.45 1.44 -79.2 0 1 200.57 277.76
  C 201.06 269.61 198.95 262.92 196.13 255.40
  Q 195.59 253.94 197.04 254.49
  C 202.65 256.60 207.24 270.29 208.04 275.68
  A 0.65 0.65 0.0 0 0 209.19 275.98
  C 218.26 264.53 226.53 254.34 239.23 245.19
  C 252.23 235.83 270.10 230.16 286.19 233.01
  A 0.95 0.93 -6.5 0 1 286.88 233.55
  Q 287.37 234.64 285.89 234.95
  C 276.53 236.93 269.97 243.07 264.68 250.68
  Q 264.35 251.17 264.34 251.61
  A 0.42 0.42 0.0 0 0 264.98 251.98
  C 285.39 239.77 308.62 235.16 332.08 239.75
  Q 332.15 239.77 332.89 239.84
  Q 333.78 239.94 333.87 240.74
  A 0.88 0.87 80.6 0 1 333.19 241.70
  C 313.76 245.88 298.32 253.56 285.63 268.91
  C 282.36 272.87 279.51 277.92 276.58 282.51
  Q 275.89 283.59 277.15 283.27
  Q 277.70 283.13 278.61 282.35
  C 300.60 263.62 332.31 252.02 361.00 250.92
  C 397.28 249.54 434.26 258.36 468.23 270.60
  Q 469.61 271.10 470.25 271.69
  Q 471.00 272.38 470.11 272.88
  Q 460.78 278.15 452.82 285.34
  A 0.23 0.23 0.0 0 0 452.99 285.74
  Q 453.26 285.72 453.58 285.73
  Q 453.89 285.73 454.18 285.57
  C 470.97 276.40 490.25 274.44 508.76 277.40
  Q 510.43 277.67 510.91 278.91
  Q 511.13 279.47 510.57 279.69
  Q 498.04 284.59 487.73 293.23
  Q 485.32 295.25 488.29 294.22
  Q 489.92 293.65 492.69 292.30
  Q 513.48 282.14 535.25 285.75
  Q 555.33 289.09 574.23 296.59
  Q 575.78 297.21 576.76 298.08
  A 0.41 0.41 0.0 0 1 576.65 298.76
  Q 563.84 304.45 553.10 313.60
  Q 551.86 314.66 551.25 315.62
  Q 550.50 316.81 551.76 316.19
  C 564.63 309.78 576.09 305.92 590.74 306.63
  Q 631.19 308.59 670.22 319.34
  C 693.75 325.82 717.37 338.04 733.08 357.17
  Q 744.59 371.16 744.83 390.00
  C 745.02 404.44 736.78 412.50 723.49 415.68
  Q 712.00 418.44 700.24 419.57
  C 665.19 422.94 630.15 423.10 595.01 421.47
  C 587.84 421.14 578.92 420.41 570.01 419.85
  Q 518.57 416.62 465.25 408.00
  C 393.13 396.35 326.50 378.08 263.80 343.38
  C 257.97 340.15 251.01 335.47 244.42 331.82
  A 0.40 0.39 8.1 0 0 243.84 332.25
  Q 247.42 347.57 245.78 363.25
  A 0.90 0.90 0.0 0 1 244.24 363.79
  Q 243.42 362.95 242.96 361.51
  Q 237.61 344.99 229.12 329.85
  C 225.07 322.63 219.12 313.73 212.28 308.33
  Q 211.86 308.00 211.41 308.30
  C 205.39 312.39 200.91 323.58 198.57 330.67
  C 198.42 331.13 197.83 331.73 197.44 331.93
  A 0.42 0.42 0.0 0 1 196.83 331.60
  Q 195.64 319.25 199.14 307.48
  Q 199.35 306.78 199.23 306.24
  A 0.33 0.33 0.0 0 0 198.67 306.07
  C 190.95 313.79 181.09 317.42 170.75 320.67
  A 0.93 0.93 0.0 0 1 169.65 319.33
  Q 169.98 318.71 171.03 318.05
  C 180.19 312.32 191.29 303.41 195.89 293.36
  A 0.59 0.59 0.0 0 0 195.52 292.55
  Q 186.99 290.03 178.56 287.20
  Q 111.30 264.60 44.71 239.54
  Q 44.30 239.38 44.48 238.98
  C 46.50 234.54 52.01 235.16 55.75 236.56
  C 191.42 287.07 333.11 331.24 475.20 361.49
  C 487.59 364.13 501.44 366.60 514.57 369.17
  C 570.66 380.13 628.79 387.02 685.99 385.82
  C 687.84 385.78 689.65 385.48 691.51 385.19
  Q 692.49 385.03 691.50 384.97
  Z"
/>
</svg>
