<?xml version="1.0" standalone="no"?>
<!DOCTYPE svg PUBLIC "-//W3C//DTD SVG 20010904//EN"
 "http://www.w3.org/TR/2001/REC-SVG-20010904/DTD/svg10.dtd">
<svg version="1.0" xmlns="http://www.w3.org/2000/svg"
 width="1080.000000pt" height="1080.000000pt" viewBox="0 0 1080.000000 1080.000000"
 preserveAspectRatio="xMidYMid meet">

<g transform="translate(0.000000,1080.000000) scale(0.100000,-0.100000)"
fill="#000000" stroke="none">
<path d="M4325 6375 c-73 -39 -99 -86 -93 -162 6 -64 28 -98 84 -127 55 -29
165 -29 214 0 105 62 109 202 7 278 -38 28 -167 35 -212 11z"/>
<path d="M1965 5916 c-162 -26 -200 -35 -203 -48 -2 -13 7 -18 35 -23 70 -11
82 -15 97 -31 14 -14 16 -93 16 -714 0 -614 -2 -700 -15 -714 -14 -14 -42 -21
-105 -28 -14 -2 -26 -10 -28 -20 -3 -17 17 -18 312 -18 272 0 316 2 316 15 0
15 -13 19 -85 29 -72 10 -75 20 -75 251 l0 203 63 -26 c82 -33 224 -42 314
-18 188 48 327 180 390 370 24 72 26 96 26 216 0 105 -5 152 -21 213 -44 163
-134 281 -259 340 -63 30 -76 32 -173 32 -97 0 -110 -2 -170 -31 -36 -17 -91
-55 -123 -84 l-58 -53 7 86 7 87 -34 -1 c-19 -1 -124 -16 -234 -33z m553 -125
c113 -58 172 -217 172 -466 0 -269 -66 -455 -177 -502 -75 -31 -179 -5 -222
56 -53 74 -55 90 -59 484 -3 286 -1 372 9 383 14 17 78 52 119 65 37 12 114 3
158 -20z"/>
<path d="M3325 5916 c-161 -26 -200 -35 -203 -48 -3 -13 9 -18 54 -24 40 -5
65 -14 81 -30 l23 -23 0 -464 c0 -532 8 -492 -96 -505 -44 -5 -60 -11 -62 -25
-3 -16 18 -17 337 -17 325 0 341 1 341 19 0 15 -11 19 -76 24 -43 3 -86 12
-100 22 l-24 15 0 393 0 393 28 26 c41 39 94 68 123 68 14 0 41 -11 60 -25 55
-40 117 -67 142 -60 73 20 109 69 109 145 -1 95 -55 150 -147 150 -98 0 -194
-70 -280 -204 -20 -31 -38 -56 -42 -56 -3 0 -3 59 0 130 l6 130 -37 -1 c-20
-1 -127 -16 -237 -33z"/>
<path d="M4315 5916 c-161 -26 -200 -35 -203 -48 -3 -13 9 -18 54 -24 40 -5
65 -14 81 -30 l23 -23 0 -464 c0 -532 8 -492 -96 -505 -44 -5 -60 -11 -62 -25
-3 -16 17 -17 312 -17 301 0 316 1 316 19 0 15 -10 19 -56 24 -102 10 -94 -38
-94 584 l0 543 -37 -1 c-21 -1 -128 -16 -238 -33z"/>
<path d="M5103 5935 c-171 -46 -264 -154 -264 -305 -1 -163 70 -253 287 -369
193 -104 207 -112 246 -152 70 -73 75 -169 13 -238 -76 -83 -241 -82 -356 3
-55 41 -120 135 -150 217 -16 44 -27 59 -41 59 -14 0 -18 -5 -14 -17 2 -10 7
-65 11 -123 9 -151 13 -168 44 -185 104 -53 369 -81 495 -51 133 31 223 94
274 191 24 44 27 61 27 145 0 84 -3 101 -27 146 -33 62 -109 133 -192 178 -34
18 -105 57 -158 86 -159 86 -219 164 -203 261 13 77 72 119 168 119 111 0 216
-86 285 -231 26 -55 42 -79 55 -79 17 0 18 8 11 116 -10 172 -11 176 -65 196
-126 46 -337 62 -446 33z"/>
<path d="M5965 5916 c-161 -26 -200 -35 -203 -48 -3 -13 9 -18 54 -24 40 -5
65 -14 81 -30 l23 -23 0 -464 c0 -532 8 -492 -96 -505 -44 -5 -60 -11 -62 -25
-3 -16 17 -17 312 -17 301 0 316 1 316 19 0 15 -10 19 -56 24 -100 10 -94 -19
-94 443 l0 402 35 30 c64 57 122 84 189 89 75 6 117 -11 143 -60 16 -29 18
-69 18 -450 l0 -419 -24 -19 c-13 -10 -34 -19 -47 -19 -17 0 -24 -6 -24 -20 0
-20 7 -20 285 -20 278 0 285 0 285 20 0 16 -7 20 -33 20 -43 0 -99 17 -109 32
-4 7 -8 196 -8 419 l0 407 36 27 c71 55 145 85 207 85 51 0 61 -3 95 -34 l37
-34 3 -435 c3 -474 6 -448 -58 -464 -20 -5 -36 -17 -38 -26 -3 -16 20 -17 287
-17 284 0 291 0 291 20 0 17 -7 20 -39 20 -50 0 -99 18 -111 40 -6 11 -10 178
-10 423 0 382 -1 409 -21 472 -16 53 -31 78 -69 116 -62 62 -129 83 -241 77
-110 -7 -190 -47 -293 -150 -43 -43 -80 -78 -82 -78 -1 0 -15 27 -30 60 -54
122 -154 177 -303 168 -112 -6 -192 -48 -300 -158 l-84 -84 5 122 6 122 -36
-1 c-21 -1 -127 -16 -237 -33z"/>
<path d="M8250 5934 c-182 -48 -332 -190 -347 -328 -3 -24 0 -53 7 -65 38 -71
170 -83 229 -20 33 35 26 65 -24 117 -69 71 -72 119 -11 177 83 78 240 72 318
-11 50 -53 61 -96 66 -261 l5 -152 -24 -5 c-13 -3 -55 -8 -94 -12 -99 -9 -241
-47 -314 -84 -129 -65 -192 -152 -192 -264 1 -106 32 -173 105 -220 58 -38
110 -49 195 -43 94 7 178 47 258 122 32 30 59 55 60 55 2 0 3 -19 3 -42 0
-162 221 -185 432 -45 36 24 55 43 52 52 -5 11 -13 10 -47 -6 -50 -22 -77 -24
-103 -5 -18 14 -19 33 -24 418 -5 394 -5 404 -28 445 -48 91 -126 150 -236
179 -66 18 -216 17 -286 -2z m238 -771 l-3 -178 -64 -32 c-72 -37 -107 -41
-158 -16 -47 22 -73 78 -73 158 0 75 25 131 76 174 42 34 138 70 192 70 l32 1
-2 -177z"/>
<path d="M5600 4510 c0 -189 2 -220 15 -220 8 0 15 9 15 20 0 11 3 20 6 20 3
0 17 -9 31 -20 34 -27 107 -27 150 0 86 52 82 189 -6 235 -48 24 -114 20 -150
-11 l-31 -26 0 111 c0 92 -3 111 -15 111 -13 0 -15 -31 -15 -220z m207 -4 c25
-21 28 -31 28 -81 0 -50 -3 -60 -28 -81 -30 -26 -92 -33 -128 -14 -41 22 -61
98 -38 143 31 61 115 77 166 33z"/>
<path d="M6660 4600 c0 -38 -2 -40 -30 -40 -20 0 -30 -5 -30 -15 0 -10 10 -15
30 -15 l30 0 0 -100 c0 -87 3 -103 20 -120 21 -21 65 -26 89 -11 19 12 5 30
-19 24 -40 -11 -50 13 -50 113 l0 94 40 0 c29 0 40 4 40 15 0 11 -11 15 -40
15 l-40 0 0 40 c0 33 -3 40 -20 40 -17 0 -20 -7 -20 -40z"/>
<path d="M8540 4600 c0 -38 -2 -40 -30 -40 -20 0 -30 -5 -30 -15 0 -10 10 -15
30 -15 l30 0 0 -100 c0 -87 3 -103 20 -120 21 -21 65 -26 89 -11 19 12 5 30
-19 24 -40 -11 -50 13 -50 113 l0 94 40 0 c29 0 40 4 40 15 0 11 -11 15 -40
15 l-40 0 0 40 c0 33 -3 40 -20 40 -17 0 -20 -7 -20 -40z"/>
<path d="M5296 4544 c-37 -21 -20 -44 19 -26 40 18 92 15 115 -8 35 -35 26
-47 -46 -53 -75 -7 -110 -25 -125 -64 -12 -32 4 -79 32 -93 32 -18 104 -12
133 11 l26 20 0 -20 c0 -15 6 -21 21 -21 17 0 20 4 15 23 -3 12 -6 62 -6 110
0 80 -2 90 -25 112 -20 20 -34 25 -77 25 -29 -1 -66 -8 -82 -16z m154 -138 c0
-14 -12 -38 -26 -55 -32 -38 -90 -43 -119 -11 -24 27 -7 67 32 76 15 3 33 7
38 9 6 2 25 4 43 4 27 1 32 -2 32 -23z"/>
<path d="M5960 4425 c0 -128 1 -135 20 -135 18 0 20 7 20 79 0 120 21 161 83
161 14 0 27 7 31 15 9 23 -56 19 -88 -6 l-26 -20 0 20 c0 14 -6 21 -20 21 -19
0 -20 -7 -20 -135z"/>
<path d="M6219 4543 c-83 -51 -82 -187 1 -237 39 -22 117 -21 158 4 17 11 32
24 32 29 0 21 -21 21 -46 2 -39 -31 -96 -28 -133 7 -17 15 -31 36 -33 47 -3
19 3 20 111 23 l114 3 -6 42 c-9 63 -51 97 -120 97 -30 0 -63 -7 -78 -17z
m135 -34 c14 -11 26 -29 26 -40 0 -17 -8 -19 -90 -19 -100 0 -111 9 -65 55 31
32 91 34 129 4z"/>
<path d="M6840 4470 c0 -98 15 -151 48 -169 34 -18 97 -13 126 10 l26 20 0
-20 c0 -14 6 -21 20 -21 19 0 20 7 20 135 0 128 -1 135 -20 135 -18 0 -20 -7
-20 -85 0 -120 -20 -155 -88 -155 -57 0 -72 33 -72 149 0 84 -1 91 -20 91 -19
0 -20 -7 -20 -90z"/>
<path d="M7330 4425 c0 -126 1 -135 19 -135 17 0 19 9 23 94 3 84 6 97 27 120
17 18 35 26 57 26 52 0 64 -27 64 -142 0 -90 2 -98 19 -98 17 0 19 9 23 99 4
113 18 141 73 141 61 0 70 -16 73 -134 4 -98 5 -106 24 -106 19 0 20 6 16 111
-3 107 -4 112 -31 135 -38 33 -105 33 -143 1 l-27 -23 -23 23 c-33 33 -96 32
-129 -2 l-25 -24 0 24 c0 18 -5 25 -20 25 -19 0 -20 -7 -20 -135z"/>
<path d="M7899 4543 c-83 -51 -82 -187 1 -237 39 -22 117 -21 158 4 17 11 32
24 32 29 0 21 -21 21 -46 2 -39 -31 -96 -28 -133 7 -17 15 -31 36 -33 47 -3
19 3 20 111 23 l114 3 -6 42 c-9 63 -51 97 -120 97 -30 0 -63 -7 -78 -17z
m135 -34 c14 -11 26 -29 26 -40 0 -17 -8 -19 -90 -19 -100 0 -111 9 -65 55 31
32 91 34 129 4z"/>
<path d="M8190 4425 c0 -126 1 -135 19 -135 17 0 19 9 23 94 3 84 6 97 27 120
18 19 35 26 62 26 58 0 69 -24 69 -142 0 -91 1 -98 20 -98 19 0 20 7 20 106 0
103 -1 106 -29 135 -22 21 -39 29 -66 29 -39 0 -90 -22 -98 -42 -3 -7 -6 -1
-6 15 -1 20 -6 27 -21 27 -19 0 -20 -7 -20 -135z"/>
<path d="M8769 4543 c-83 -51 -82 -187 1 -237 39 -22 117 -21 158 4 17 11 32
24 32 29 0 21 -21 21 -46 2 -39 -31 -96 -28 -133 7 -17 15 -31 36 -33 47 -3
19 3 20 111 23 l114 3 -6 42 c-9 63 -51 97 -120 97 -30 0 -63 -7 -78 -17z
m135 -34 c14 -11 26 -29 26 -40 0 -17 -8 -19 -90 -19 -100 0 -111 9 -65 55 31
32 91 34 129 4z"/>
<path d="M3460 4493 c-169 -28 -346 -149 -512 -350 -32 -40 -63 -73 -67 -73
-4 0 -15 26 -25 58 -17 58 -77 152 -97 152 -7 0 -8 -7 -4 -17 20 -50 35 -114
41 -170 l7 -61 291 -96 c878 -287 1838 -548 2616 -711 69 -14 166 -35 215 -45
311 -69 910 -158 1270 -190 66 -6 136 -12 155 -14 19 -2 81 -4 138 -5 56 0
102 -5 102 -9 0 -12 -50 -12 -300 -1 -299 13 -629 47 -970 99 -130 20 -739
134 -800 150 -19 5 -120 28 -225 51 -1022 221 -2480 658 -3761 1128 -208 76
-260 89 -298 75 -25 -10 -19 -31 12 -42 15 -5 146 -54 292 -107 402 -147 690
-248 955 -337 132 -44 244 -84 248 -88 22 -20 -141 -188 -239 -246 -36 -22 -4
-28 54 -10 68 21 156 68 196 105 l29 26 -7 -30 c-12 -49 -19 -241 -9 -230 5 6
22 41 38 79 29 69 80 146 102 153 6 2 41 -30 77 -72 67 -79 179 -287 227 -422
12 -35 25 -63 30 -63 16 0 21 116 10 213 -7 54 -11 101 -9 103 2 1 33 -15 68
-38 111 -70 139 -85 345 -187 751 -372 1685 -581 2975 -666 129 -9 377 -16
550 -16 598 0 916 40 1031 132 44 35 69 104 69 194 0 247 -168 452 -509 620
-229 113 -734 216 -1061 216 -126 0 -190 -13 -303 -61 -39 -16 -72 -28 -74
-26 -7 6 137 108 200 142 l62 33 -50 21 c-65 29 -194 66 -308 90 -167 36 -340
20 -476 -41 -35 -16 -66 -27 -68 -25 -8 8 91 75 159 108 38 18 67 38 65 43 -9
25 -218 32 -338 11 -41 -8 -104 -26 -140 -40 -35 -15 -71 -30 -79 -33 -32 -13
24 37 87 78 35 23 62 47 60 53 -8 24 -417 142 -612 175 -158 28 -384 44 -495
37 -268 -19 -576 -130 -761 -272 -38 -30 -71 -54 -74 -54 -2 0 12 28 32 61
104 174 276 294 502 350 64 15 40 29 -70 39 -170 16 -301 -6 -469 -80 -52 -23
-102 -44 -109 -47 -24 -11 24 51 75 96 25 22 68 47 95 56 27 9 47 21 43 26 -5
9 -154 10 -204 2z"/>
</g>
</svg>
